<svg viewBox="0 0 854 854" xmlns="http://www.w3.org/2000/svg" fill-rule="evenodd" clip-rule="evenodd" stroke-linejoin="round" stroke-miterlimit="1.414">
    <g transform="matrix(.61987 0 0 .61987 -670.542 -354.156)">
        <path d="M2434.52 795.139c0-109.959-89.27-199.231-199.23-199.231h-929.74c-109.96 0-199.23 89.272-199.23 199.231v929.741c0 109.96 89.27 199.23 199.23 199.23h929.74c109.96 0 199.23-89.27 199.23-199.23V795.139z" fill="#171f27"/>
        <clipPath id="a">
            <path d="M2434.52 795.139c0-109.959-89.27-199.231-199.23-199.231h-929.74c-109.96 0-199.23 89.272-199.23 199.231v929.741c0 109.96 89.27 199.23 199.23 199.23h929.74c109.96 0 199.23-89.27 199.23-199.23V795.139z"/>
        </clipPath>
        <g clip-path="url(#a)">
            <path d="M2508.338 1787.034l-492.203 278.447v-216.82l306.679-168.746 185.524 107.12zm33.717-30.49v-582.222l-180.04 104.055v374.274l180.04 103.893zm-1061.358 30.49l492.203 278.447v-216.82l-306.84-168.746-185.363 107.12zm-33.717-30.49v-582.222l180.04 104.055v374.274l-180.04 103.893zm21.134-619.972L1972.9 851.027v209.561l-323.457 177.941-2.58 1.452-178.749-103.409zm1052.807 0l-504.786-285.545v209.561l323.457 177.78 2.58 1.452 178.749-103.248zM1972.9 1799.295l-302.646-166.487V1303.22l302.646 174.715v321.36zm43.235 0l302.646-166.326v-329.748l-302.646 174.715v321.36zm-325.392-534.147l303.775-166.971 303.775 166.971-303.775 175.36-303.775-175.36z" fill="none" stroke="#44b2c8" stroke-width="9.6795"/>
        </g>
    </g>
    <path d="M715.489.229c34.266.163 68.396 13.53 93.582 36.84 27.825 25.753 44.29 63.34 44.469 101.21.297 192.401.297 384.808 0 577.21-.149 31.495-11.362 62.922-31.384 87.32-25.793 31.434-65.272 50.538-106.667 50.73-192.4.298-384.808.298-577.209 0-47.58-.223-94.145-26.654-118.624-67.758C7.091 764.687.347 740.202.23 715.488c-.304-192.4-.304-384.808 0-577.21.223-47.316 26.418-93.832 67.404-118.41C88.864 7.137 113.56.347 138.28.228c192.401-.304 384.808-.304 577.209 0zm-576.75 29.999c-36.79.058-72.847 20.094-92.292 51.435-10.494 16.916-16.123 36.77-16.216 56.71-.31 192.338-.31 384.683 0 577.022.21 44.742 30.12 87.377 73.089 102.229 11.25 3.893 23.12 5.858 35.053 5.913 192.34.298 384.684.298 577.023 0 44.531-.21 87.265-29.797 102.229-73.088 3.892-11.25 5.857-23.121 5.913-35.054.298-192.339.298-384.684 0-577.022-.167-35.456-18.738-70.058-48.139-89.796-17.592-11.812-38.66-18.247-60.003-18.349-192.221-.304-384.442 0-576.657 0z" fill="#1e5d9b" fill-rule="nonzero"/>
</svg>
