<svg viewBox="0 0 900 1100" xmlns="http://www.w3.org/2000/svg" fill-rule="evenodd" clip-rule="evenodd" stroke-linejoin="round" stroke-miterlimit="1.414">
    <g transform="matrix(.61987 0 0 .61987 -647.426 -331.04)">
        <path d="M2434.52 795.139c0-109.959-89.27-199.231-199.23-199.231h-929.74c-109.96 0-199.23 89.272-199.23 199.231v929.741c0 109.96 89.27 199.23 199.23 199.23h929.74c109.96 0 199.23-89.27 199.23-199.23V795.139z" fill="#171f27"/>
        <clipPath id="a">
            <path d="M2434.52 795.139c0-109.959-89.27-199.231-199.23-199.231h-929.74c-109.96 0-199.23 89.272-199.23 199.231v929.741c0 109.96 89.27 199.23 199.23 199.23h929.74c109.96 0 199.23-89.27 199.23-199.23V795.139z"/>
        </clipPath>
        <g clip-path="url(#a)">
            <path d="M2508.338 1787.034l-492.203 278.447v-216.82l306.679-168.746 185.524 107.12zm33.717-30.49v-582.222l-180.04 104.055v374.274l180.04 103.893zm-1061.358 30.49l492.203 278.447v-216.82l-306.84-168.746-185.363 107.12zm-33.717-30.49v-582.222l180.04 104.055v374.274l-180.04 103.893zm21.134-619.972L1972.9 851.027v209.561l-323.457 177.941-2.58 1.452-178.749-103.409zm1052.807 0l-504.786-285.545v209.561l323.457 177.78 2.58 1.452 178.749-103.248zM1972.9 1799.295l-302.646-166.487V1303.22l302.646 174.715v321.36zm43.235 0l302.646-166.326v-329.748l-302.646 174.715v321.36zm-325.392-534.147l303.775-166.971 303.775 166.971-303.775 175.36-303.775-175.36z" fill="none" stroke="#44b2c8" stroke-width="9.6795"/>
        </g>
        <path d="M2434.52 795.139c0-109.959-89.27-199.231-199.23-199.231h-929.74c-109.96 0-199.23 89.272-199.23 199.231v929.741c0 109.96 89.27 199.23 199.23 199.23h929.74c109.96 0 199.23-89.27 199.23-199.23V795.139z" fill="none" stroke="#1e5d9b" stroke-width="48.4" stroke-linecap="round" stroke-miterlimit="1.5"/>
    </g>
    <g fill-rule="nonzero">
        <path d="M95.94 1026.815h9.24l13.2-41.04h.24l13.32 41.04h9.12l20.76-56.76H150.9l-14.28 41.4h-.24l-13.44-41.4h-8.76l-13.56 41.4h-.24l-14.28-41.4H75.06l20.88 56.76zM193.38 1028.495c11.88 0 21.72-6.12 25.08-15.84h-10.68c-2.4 4.92-8.04 7.56-14.16 7.56-9.72 0-17.04-7.2-18.36-17.64h44.76v-3.48c0-18.6-10.68-30.72-27.12-30.72s-27.84 12.12-27.84 30.12c0 17.88 11.52 30 28.32 30zm-18.24-33.36c.84-10.92 8.28-18.48 18-18.48 10.2 0 16.44 8.4 16.68 18.48h-34.68zM260.22 968.375c-8.16 0-15.6 4.56-19.32 11.28h-.24v-45.24h-10.2v92.4h10.2v-9.48h.24c4.44 7.2 11.52 11.16 19.2 11.16 15.12 0 26.76-12.96 26.76-30s-11.52-30.12-26.64-30.12zm-1.68 51.6c-10.08 0-17.88-9.24-17.88-21.48 0-12.36 7.8-21.6 17.88-21.6 10.2 0 18 9.36 18 21.6 0 12.24-7.8 21.48-18 21.48zM327.06 1028.495c15.12 0 26.64-12.96 26.64-30s-11.64-30.12-26.76-30.12c-7.68 0-14.76 4.08-19.2 11.28h-.24v-9.48h-10.2v84h10.2v-36.84h.24c3.72 6.72 11.16 11.16 19.32 11.16zm-1.68-51.6c10.2 0 18 9.36 18 21.6 0 12.24-7.8 21.48-18 21.48-10.08 0-17.88-9.12-17.88-21.48 0-12.24 7.8-21.6 17.88-21.6zM387.9 1028.495c7.08 0 14.64-3.48 19.2-11.16h.24v9.48h10.2v-56.76h-10.2v9.6h-.24c-4.56-7.68-12.12-11.28-19.2-11.28-15.24 0-26.76 12.96-26.76 30.12 0 17.04 11.52 30 26.76 30zm1.44-8.52c-10.08 0-18-9.12-18-21.48 0-12.36 7.92-21.6 18-21.6 10.2 0 18 9.24 18 21.6 0 12.24-7.8 21.48-18 21.48zM456.42 1028.495c13.32 0 23.64-7.92 25.68-20.64h-10.08c-1.56 6.84-7.2 11.88-15.6 11.88-10.92 0-18.36-8.64-18.36-21.24 0-12.72 7.44-21.36 18.36-21.36 8.4 0 14.04 5.16 15.6 12h10.08c-2.04-12.72-12.36-20.76-25.68-20.76-16.92 0-28.44 12.24-28.44 30.12 0 17.88 11.52 30 28.44 30zM492.54 1026.815h10.2v-27.48l31.32 27.48h13.56l-32.4-28.32 28.08-28.44h-12.48l-28.08 28.44v-64.08h-10.2v92.4zM556.74 989.735h37.56v9.6h-37.56zM602.46 1026.815h12l16.44-21.6 16.2 21.6h11.88l-21.48-28.44 21.12-28.32h-12.24l-15.6 21.36-15.48-21.36h-12.36l21 28.2-21.48 28.56zM666.18 1026.815h10.2v-27.12c0-13.32 5.52-22.08 13.68-22.08 1.44 0 3.12.24 4.8.84v-9.36c-1.68-.48-3.24-.72-4.92-.72-5.76 0-10.92 3.96-13.32 11.52h-.24v-9.84h-10.2v56.76zM723.42 1028.495c7.08 0 14.64-3.48 19.2-11.16h.24v9.48h10.2v-56.76h-10.2v9.6h-.24c-4.56-7.68-12.12-11.28-19.2-11.28-15.24 0-26.76 12.96-26.76 30.12 0 17.04 11.52 30 26.76 30zm1.44-8.52c-10.08 0-18-9.12-18-21.48 0-12.36 7.92-21.6 18-21.6 10.2 0 18 9.24 18 21.6 0 12.24-7.8 21.48-18 21.48zM813.9 970.055l-19.92 47.76h-.24l-21.84-47.76h-11.04l27.72 59.04-11.04 25.08h11.04l36.36-84.12H813.9z"/>
    </g>
</svg>
